<svg width="32" height="32" viewBox="0 0 32 32" fill="none" xmlns="http://www.w3.org/2000/svg">
<path d="M16 0.000305176C7.16429 0.000305176 0 7.16459 0 16.0003C0 24.836 7.16429 32.0003 16 32.0003C24.8357 32.0003 32 24.836 32 16.0003C32 7.16459 24.8357 0.000305176 16 0.000305176ZM23.6893 12.061C23.7 12.2289 23.7 12.4039 23.7 12.5753C23.7 17.8182 19.7071 23.8574 12.4107 23.8574C10.1607 23.8574 8.075 23.2039 6.31786 22.0789C6.63929 22.1146 6.94643 22.1289 7.275 22.1289C9.13214 22.1289 10.8393 21.5003 12.2 20.436C10.4571 20.4003 8.99286 19.2575 8.49286 17.686C9.10357 17.7753 9.65357 17.7753 10.2821 17.6146C9.38474 17.4323 8.57812 16.9449 7.99934 16.2352C7.42056 15.5256 7.10531 14.6375 7.10714 13.7217V13.6717C7.63214 13.9682 8.25 14.1503 8.89643 14.1753C8.35301 13.8131 7.90735 13.3225 7.59897 12.7468C7.29059 12.1712 7.12901 11.5283 7.12857 10.8753C7.12857 10.136 7.32143 9.46102 7.66786 8.87531C8.66394 10.1015 9.9069 11.1044 11.3159 11.8188C12.725 12.5331 14.2686 12.943 15.8464 13.0217C15.2857 10.3253 17.3 8.14316 19.7214 8.14316C20.8643 8.14316 21.8929 8.62173 22.6179 9.39316C23.5143 9.22531 24.3714 8.88959 25.1357 8.43959C24.8393 9.35745 24.2179 10.1324 23.3929 10.6217C24.1929 10.536 24.9643 10.3146 25.6786 10.0039C25.1393 10.7967 24.4643 11.5003 23.6893 12.061Z" fill="white"/>
</svg>
