<svg width="32" height="32" viewBox="0 0 32 32" fill="none" xmlns="http://www.w3.org/2000/svg">
<path d="M18.6717 15.7214L14.9283 13.9747C14.6017 13.823 14.3333 13.993 14.3333 14.3547V17.6447C14.3333 18.0064 14.6017 18.1764 14.9283 18.0247L18.67 16.278C18.9983 16.1247 18.9983 15.8747 18.6717 15.7214ZM16 -0.000289917C7.16333 -0.000289917 0 7.16304 0 15.9997C0 24.8364 7.16333 31.9997 16 31.9997C24.8367 31.9997 32 24.8364 32 15.9997C32 7.16304 24.8367 -0.000289917 16 -0.000289917ZM16 22.4997C7.81 22.4997 7.66667 21.7614 7.66667 15.9997C7.66667 10.238 7.81 9.49971 16 9.49971C24.19 9.49971 24.3333 10.238 24.3333 15.9997C24.3333 21.7614 24.19 22.4997 16 22.4997Z" fill="white"/>
</svg>
